<svg xmlns="http://www.w3.org/2000/svg" viewBox="0 0 512 512" role="img" aria-label="Momo peach fox">
  <defs>
    <linearGradient id="momo-fur" x1=".18" y1=".08" x2=".8" y2=".92">
      <stop offset="0" stop-color="#ffb18e"/>
      <stop offset="1" stop-color="#f47483"/>
    </linearGradient>
    <linearGradient id="momo-cream" x1=".2" y1="0" x2=".8" y2="1">
      <stop offset="0" stop-color="#fff8e9"/>
      <stop offset="1" stop-color="#ffe4cf"/>
    </linearGradient>
    <linearGradient id="momo-screen-beam" gradientUnits="userSpaceOnUse" x1="255" y1="385" x2="255" y2="175">
      <stop offset="0" stop-color="#9feeff" stop-opacity=".62"/>
      <stop offset=".48" stop-color="#c8f7ff" stop-opacity=".3"/>
      <stop offset="1" stop-color="#f1fdff" stop-opacity=".02"/>
    </linearGradient>
    <linearGradient id="momo-face-light" gradientUnits="userSpaceOnUse" x1="255" y1="385" x2="255" y2="205">
      <stop offset="0" stop-color="#d0f9ff" stop-opacity=".42"/>
      <stop offset=".62" stop-color="#e8fcff" stop-opacity=".17"/>
      <stop offset="1" stop-color="#fff" stop-opacity="0"/>
    </linearGradient>
    <filter id="momo-screen-soft" x="-20%" y="-10%" width="140%" height="125%" color-interpolation-filters="sRGB">
      <feGaussianBlur stdDeviation="7"/>
    </filter>
    <filter id="momo-shadow" x="-30%" y="-30%" width="160%" height="180%">
      <feDropShadow dx="0" dy="13" stdDeviation="11" flood-color="#632d55" flood-opacity=".2"/>
    </filter>
  </defs>
  <g filter="url(#momo-shadow)" stroke="#663451" stroke-width="9" stroke-linecap="round" stroke-linejoin="round">
    <g class="pet-tail">
      <path fill="url(#momo-fur)" d="M145 357c-70 0-97 44-76 78 21 35 92 29 126-21 15-22 15-47-3-58-13-8-30-3-47 1Z"/>
      <path fill="#ff8c91" d="M146 387c-42 3-57 22-51 34 8 14 46 10 69-16"/>
    </g>
    <g class="pet-body">
      <path fill="url(#momo-fur)" d="M176 262c-30 20-48 64-43 113 6 62 52 91 122 91s119-29 125-91c5-49-13-93-43-113H176Z"/>
      <path fill="url(#momo-cream)" d="M196 351c16-26 40-38 59-38s43 12 59 38c16 27 9 75-10 94-14 14-84 14-98 0-19-19-26-67-10-94Z"/>
    </g>
    <g class="pet-laptop">
      <path fill="#6b6ea1" d="M176 374h158l-17 77H193l-17-77Z" stroke="#424563"/>
      <path class="pet-laptop-screen" fill="#91dcff" d="m255 393 17 19-17 19-17-19 17-19Z" stroke="none"/>
    </g>
    <g class="pet-paw pet-paw-left">
      <path fill="url(#momo-fur)" d="M178 334c-23 8-37 32-31 55 5 19 24 25 39 13 17-13 25-43 15-60-6-9-14-12-23-8Z"/>
      <path fill="none" d="M164 379c8 2 15 7 19 14" stroke-width="6"/>
    </g>
    <g class="pet-paw pet-paw-right">
      <path fill="url(#momo-fur)" d="M332 334c23 8 37 32 31 55-5 19-24 25-39 13-17-13-25-43-15-60 6-9 14-12 23-8Z"/>
      <path fill="none" d="M346 379c-8 2-15 7-19 14" stroke-width="6"/>
    </g>
    <g class="pet-head">
      <g class="pet-ear pet-ear-left">
        <path fill="url(#momo-fur)" d="M145 98 117 217l89-49Z"/>
        <path fill="#ffced0" d="m151 133-14 60 45-28Z" stroke-width="7"/>
      </g>
      <g class="pet-ear pet-ear-right">
        <path fill="url(#momo-fur)" d="M365 98l28 119-89-49Z"/>
        <path fill="#ffced0" d="m359 133 14 60-45-28Z" stroke-width="7"/>
      </g>
      <path fill="url(#momo-fur)" d="M131 225c0-91 50-146 124-146s124 55 124 146c0 74-44 119-124 119s-124-45-124-119Z"/>
      <path fill="url(#momo-cream)" d="M170 264c12-33 44-49 85-31 41-18 73-2 85 31 13 37-20 78-85 80-65-2-98-43-85-80Z" stroke-width="7"/>
      <g class="pet-eye pet-eye-left">
        <path fill="#3c304f" d="M198 223c0-14 9-24 20-24s20 10 20 24-9 24-20 24-20-10-20-24Z" stroke="none"/>
        <circle cx="212" cy="215" r="6" fill="#fff" stroke="none"/>
      </g>
      <g class="pet-eye pet-eye-right">
        <path fill="#3c304f" d="M272 223c0-14 9-24 20-24s20 10 20 24-9 24-20 24-20-10-20-24Z" stroke="none"/>
        <circle cx="286" cy="215" r="6" fill="#fff" stroke="none"/>
      </g>
      <path fill="#60405b" d="M244 263c0-8 5-13 11-13s11 5 11 13c0 7-5 13-11 13s-11-6-11-13Z" stroke-width="5"/>
      <path class="pet-mouth-neutral" fill="none" d="M255 277c-3 13-16 19-27 12m27-12c3 13 16 19 27 12" stroke-width="6"/>
      <path class="pet-mouth-happy" fill="#ef7f91" d="M224 284c8 29 54 29 62 0-16 10-46 10-62 0Z" stroke-width="6"/>
      <path fill="none" d="M156 248c-22-7-32-29-25-53 6-25 26-39 46-34m177 87c22-7 32-29 25-53-6-25-26-39-46-34" stroke="#424563" stroke-width="13"/>
      <rect x="137" y="224" width="26" height="53" rx="13" fill="#7376a8" stroke="#424563" stroke-width="7"/>
      <rect x="347" y="224" width="26" height="53" rx="13" fill="#7376a8" stroke="#424563" stroke-width="7"/>
    </g>
    <g class="pet-screen-light" stroke="none" filter="url(#momo-screen-soft)">
      <path class="pet-screen-beam" fill="url(#momo-screen-beam)" d="M217 386h76l55-204H162l55 204Z"/>
      <path class="pet-face-light" fill="url(#momo-face-light)" d="M226 386h58l42-181H184l42 181Z"/>
    </g>
  </g>
</svg>
